<svg xmlns="http://www.w3.org/2000/svg" viewBox="0 0 320 220">
  <defs>
    <linearGradient id="bg" x1="0" y1="0" x2="1" y2="1">
      <stop offset="0%" stop-color="#4B87A1"/>
      <stop offset="100%" stop-color="#123A53"/>
    </linearGradient>
  </defs>
  <rect width="320" height="220" rx="24" fill="url(#bg)"/>
  <circle cx="76" cy="54" r="36" fill="#F4EFE3" fill-opacity="0.12"/>
  <circle cx="272" cy="164" r="44" fill="#F4EFE3" fill-opacity="0.08"/>
  <path d="M95 128 C95 95, 124 76, 161 76 C198 76, 225 95, 225 128 C225 159, 208 174, 186 174 L135 174 C112 174, 95 159, 95 128 Z" fill="#F4EFE3" fill-opacity="0.92"/>
  <rect x="118" y="115" width="34" height="12" rx="4" fill="#1B5871"/>
  <rect x="129" y="104" width="12" height="34" rx="4" fill="#1B5871"/>
  <circle cx="187" cy="116" r="8" fill="#C3A56A"/>
  <circle cx="205" cy="128" r="8" fill="#E8D7B2"/>
  <circle cx="187" cy="140" r="8" fill="#E8D7B2"/>
  <circle cx="169" cy="128" r="8" fill="#C3A56A"/>
  <rect x="138" y="146" width="44" height="8" rx="4" fill="#1B5871" fill-opacity="0.58"/>
</svg>
